<?xml version="1.0" encoding="UTF-8"?>
<!DOCTYPE svg PUBLIC "-//W3C//DTD SVG 1.1//EN" "http://www.w3.org/Graphics/SVG/1.1/DTD/svg11.dtd">
<svg xmlns="http://www.w3.org/2000/svg" version="1.1" width="2101px" height="2049px" style="shape-rendering:geometricPrecision; text-rendering:geometricPrecision; image-rendering:optimizeQuality; fill-rule:evenodd; clip-rule:evenodd" xmlns:xlink="http://www.w3.org/1999/xlink">
<g><path style="opacity:1" fill="#00005b" d="M 344.5,-0.5 C 814.833,-0.5 1285.17,-0.5 1755.5,-0.5C 1879.3,11.7903 1975.47,69.4569 2044,172.5C 2076.56,225.354 2095.4,282.687 2100.5,344.5C 2100.5,797.5 2100.5,1250.5 2100.5,1703.5C 2087.08,1834.58 2024.08,1933.75 1911.5,2001C 1859.92,2029.14 1804.92,2044.98 1746.5,2048.5C 1282.17,2048.5 817.833,2048.5 353.5,2048.5C 235.664,2040.01 141.164,1989.01 70,1895.5C 28.9938,1837.99 5.49382,1773.99 -0.5,1703.5C -0.5,1250.17 -0.5,796.833 -0.5,343.5C 13.3243,212.274 76.6576,113.107 189.5,46C 237.918,19.4815 289.584,3.98148 344.5,-0.5 Z"/></g>
<g><path style="opacity:1" fill="#9898fe" d="M 561.5,526.5 C 638.834,526.333 716.167,526.5 793.5,527C 796.548,527.606 799.048,529.106 801,531.5C 906.47,826.909 1012.14,1122.24 1118,1417.5C 1121.27,1423.91 1122.11,1430.57 1120.5,1437.5C 1119.33,1438.58 1118,1439.42 1116.5,1440C 1051.42,1440.99 986.418,1440.66 921.5,1439C 919.291,1437.13 917.458,1434.96 916,1432.5C 892,1362.5 868,1292.5 844,1222.5C 843.517,1223.45 843.351,1224.45 843.5,1225.5C 734.833,1225.33 626.166,1225.5 517.5,1226C 494.808,1295.74 472.308,1365.58 450,1435.5C 448.108,1439.06 445.275,1441.56 441.5,1443C 382.167,1443.67 322.833,1443.67 263.5,1443C 259.158,1437.79 258.325,1431.96 261,1425.5C 358.065,1148.31 454.731,870.973 551,593.5C 554.135,572.953 556.135,552.286 557,531.5C 558.025,529.313 559.525,527.646 561.5,526.5 Z"/></g>
<g><path style="opacity:1" fill="#00005b" d="M 790.5,1050.5 C 716.665,1050.83 642.998,1050.5 569.5,1049.5C 583.719,1009.35 596.219,968.679 607,927.5C 623,876.167 639,824.833 655,773.5C 663.623,744.338 671.29,715.005 678,685.5C 689.739,726.157 701.739,766.824 714,807.5C 739.409,888.56 764.909,969.56 790.5,1050.5 Z"/></g>
<g><path style="opacity:1" fill="#9898fe" d="M 1477.5,737.5 C 1537.42,733.485 1594.42,744.318 1648.5,770C 1690.31,791.479 1723.48,822.312 1748,862.5C 1781.89,918.343 1798.39,979.009 1797.5,1044.5C 1797.97,1076.04 1795.8,1107.37 1791,1138.5C 1789.02,1141.74 1786.19,1143.91 1782.5,1145C 1756.85,1146.98 1731.19,1148.48 1705.5,1149.5C 1686.8,1149.36 1668.14,1148.52 1649.5,1147C 1552.83,1146.5 1456.17,1146.33 1359.5,1146.5C 1363.94,1190.22 1382.28,1226.72 1414.5,1256C 1433.44,1270.3 1454.44,1280.63 1477.5,1287C 1510.8,1296.97 1544.8,1300.63 1579.5,1298C 1616.86,1295.2 1653.86,1289.87 1690.5,1282C 1704.77,1278.13 1718.77,1273.46 1732.5,1268C 1735.22,1266.97 1737.05,1267.8 1738,1270.5C 1738.67,1318.17 1738.67,1365.83 1738,1413.5C 1737.43,1417.98 1735.6,1421.82 1732.5,1425C 1688.2,1444.53 1641.86,1456.2 1593.5,1460C 1536.25,1466.02 1479.25,1464.35 1422.5,1455C 1295.52,1427.41 1213.68,1351.25 1177,1226.5C 1150.27,1125.48 1156.94,1026.82 1197,930.5C 1230.44,855.399 1283.94,799.566 1357.5,763C 1395.93,746.655 1435.93,738.155 1477.5,737.5 Z"/></g>
<g><path style="opacity:1" fill="#00005b" d="M 1475.5,888.5 C 1513.59,884.702 1547.26,894.868 1576.5,919C 1603.15,944.125 1615.15,974.958 1612.5,1011.5C 1602.41,1016.35 1591.75,1018.52 1580.5,1018C 1506.83,1018.5 1433.17,1018.67 1359.5,1018.5C 1363.23,979.544 1378.9,946.378 1406.5,919C 1426.66,902.252 1449.66,892.085 1475.5,888.5 Z"/></g>
<g><path style="opacity:1" fill="#5b5bbc" d="M 569.5,1049.5 C 642.998,1050.5 716.665,1050.83 790.5,1050.5C 716.666,1051.83 642.666,1051.83 568.5,1050.5C 568.624,1049.89 568.957,1049.56 569.5,1049.5 Z"/></g>
</svg>
