<?xml version="1.0" encoding="UTF-8"?>
<!DOCTYPE svg PUBLIC "-//W3C//DTD SVG 1.1//EN" "http://www.w3.org/Graphics/SVG/1.1/DTD/svg11.dtd">
<svg xmlns="http://www.w3.org/2000/svg" version="1.1" width="2101px" height="2049px" style="shape-rendering:geometricPrecision; text-rendering:geometricPrecision; image-rendering:optimizeQuality; fill-rule:evenodd; clip-rule:evenodd" xmlns:xlink="http://www.w3.org/1999/xlink">
<g><path style="opacity:1" fill="#330000" d="M 344.5,-0.5 C 814.833,-0.5 1285.17,-0.5 1755.5,-0.5C 1879.3,11.7903 1975.47,69.4569 2044,172.5C 2076.56,225.354 2095.4,282.687 2100.5,344.5C 2100.5,797.5 2100.5,1250.5 2100.5,1703.5C 2087.08,1834.58 2024.08,1933.75 1911.5,2001C 1859.92,2029.14 1804.92,2044.98 1746.5,2048.5C 1282.17,2048.5 817.833,2048.5 353.5,2048.5C 235.664,2040.01 141.164,1989.01 70,1895.5C 28.9938,1837.99 5.49382,1773.99 -0.5,1703.5C -0.5,1250.17 -0.5,796.833 -0.5,343.5C 13.3243,212.274 76.6576,113.107 189.5,46C 237.918,19.4815 289.584,3.98148 344.5,-0.5 Z"/></g>
<g><path style="opacity:1" fill="#fe9900" d="M 1477.5,453.5 C 1506.09,451.258 1532.43,457.758 1556.5,473C 1584.46,495.926 1598.46,525.592 1598.5,562C 1598.29,603.435 1581.29,635.768 1547.5,659C 1523.42,672.055 1497.75,676.722 1470.5,673C 1421.72,664.376 1392.22,635.876 1382,587.5C 1372.58,535.868 1389.75,496.035 1433.5,468C 1447.46,460.624 1462.13,455.791 1477.5,453.5 Z"/></g>
<g><path style="opacity:1" fill="#fe9900" d="M 732.5,520.5 C 810.834,520.333 889.167,520.5 967.5,521C 969.286,521.785 970.786,522.951 972,524.5C 1078.67,825.167 1185.33,1125.83 1292,1426.5C 1293.93,1431.19 1293.93,1435.86 1292,1440.5C 1290.58,1441.46 1289.08,1442.29 1287.5,1443C 1223.5,1443.67 1159.5,1443.67 1095.5,1443C 1093.83,1442 1092.17,1441 1090.5,1440C 1087.76,1435.47 1085.6,1430.64 1084,1425.5C 1061.27,1359.13 1038.43,1292.8 1015.5,1226.5C 906.502,1225.5 797.502,1225.17 688.5,1225.5C 666.441,1294.85 644.274,1364.18 622,1433.5C 619.993,1438.84 616.159,1442 610.5,1443C 552.833,1443.67 495.167,1443.67 437.5,1443C 432.552,1441.28 430.552,1437.78 431.5,1432.5C 432.069,1426.29 433.569,1420.29 436,1414.5C 528.667,1147.83 621.333,881.167 714,614.5C 723.787,585.66 728.454,555.994 728,525.5C 729.707,523.963 731.207,522.296 732.5,520.5 Z"/></g>
<g><path style="opacity:1" fill="#330000" d="M 961.5,1045.5 C 925.002,1046.17 888.335,1046.5 851.5,1046.5C 814.494,1046.5 777.827,1045.83 741.5,1044.5C 755.659,1003.19 768.492,961.527 780,919.5C 795.847,868.442 811.847,817.442 828,766.5C 835.787,738.686 842.954,710.686 849.5,682.5C 860.433,718.298 870.933,754.298 881,790.5C 908.135,875.404 934.968,960.404 961.5,1045.5 Z"/></g>
<g><path style="opacity:1" fill="#fe9900" d="M 1395.5,747.5 C 1456.83,747.333 1518.17,747.5 1579.5,748C 1582,749.167 1583.83,751 1585,753.5C 1585.67,982.5 1585.67,1211.5 1585,1440.5C 1584.17,1444 1582,1446.17 1578.5,1447C 1518.17,1447.67 1457.83,1447.67 1397.5,1447C 1393.51,1445.01 1391.01,1441.84 1390,1437.5C 1389.33,1209.5 1389.33,981.5 1390,753.5C 1391.36,750.977 1393.19,748.977 1395.5,747.5 Z"/></g>
<g><path style="opacity:1" fill="#4e1500" d="M 741.5,1044.5 C 777.827,1045.83 814.494,1046.5 851.5,1046.5C 888.335,1046.5 925.002,1046.17 961.5,1045.5C 962.043,1045.56 962.376,1045.89 962.5,1046.5C 888.503,1047.5 814.503,1047.83 740.5,1047.5C 740.263,1046.21 740.596,1045.21 741.5,1044.5 Z"/></g>
</svg>
