<?xml version="1.0" encoding="UTF-8"?>
<!DOCTYPE svg PUBLIC "-//W3C//DTD SVG 1.1//EN" "http://www.w3.org/Graphics/SVG/1.1/DTD/svg11.dtd">
<svg xmlns="http://www.w3.org/2000/svg" version="1.1" width="1000px" height="1000px" style="shape-rendering:geometricPrecision; text-rendering:geometricPrecision; image-rendering:optimizeQuality; fill-rule:evenodd; clip-rule:evenodd" xmlns:xlink="http://www.w3.org/1999/xlink">
<g><path style="opacity:0.97" fill="#fda63f" d="M 568.5,28.5 C 528.788,39.6779 489.122,51.0112 449.5,62.5C 465.291,25.7564 493.291,9.25643 533.5,13C 546.717,14.9477 558.384,20.1144 568.5,28.5 Z"/></g>
<g><path style="opacity:0.99" fill="#fca43d" d="M 568.5,28.5 C 579.134,37.4669 589.134,47.1336 598.5,57.5C 547.833,71.8336 497.166,86.1669 446.5,100.5C 444.601,87.6312 445.601,74.9645 449.5,62.5C 489.122,51.0112 528.788,39.6779 568.5,28.5 Z"/></g>
<g><path style="opacity:0.991" fill="#fb9f3b" d="M 598.5,57.5 C 614.167,72.5 629.5,87.8333 644.5,103.5C 588.605,119.808 532.605,135.808 476.5,151.5C 459.816,138.471 449.816,121.471 446.5,100.5C 497.166,86.1669 547.833,71.8336 598.5,57.5 Z"/></g>
<g><path style="opacity:0.99" fill="#fa9b3a" d="M 644.5,103.5 C 651.167,109.5 657.5,115.833 663.5,122.5C 607.573,138.697 551.573,154.697 495.5,170.5C 488.833,164.5 482.5,158.167 476.5,151.5C 532.605,135.808 588.605,119.808 644.5,103.5 Z"/></g>
<g><path style="opacity:0.99" fill="#f99839" d="M 663.5,122.5 C 670.5,128.833 677.167,135.5 683.5,142.5C 627.23,157.928 571.23,173.928 515.5,190.5C 508.5,184.167 501.833,177.5 495.5,170.5C 551.573,154.697 607.573,138.697 663.5,122.5 Z"/></g>
<g><path style="opacity:0.99" fill="#f89638" d="M 683.5,142.5 C 687.167,145.5 690.5,148.833 693.5,152.5C 637.229,167.898 581.229,183.898 525.5,200.5C 521.833,197.5 518.5,194.167 515.5,190.5C 571.23,173.928 627.23,157.928 683.5,142.5 Z"/></g>
<g><path style="opacity:0.996" fill="#f79236" d="M 693.5,152.5 C 706.5,164.833 719.167,177.5 731.5,190.5C 516.916,252.149 302.25,313.816 87.5,375.5C 72.9943,364.986 63.661,350.986 59.5,333.5C 169.583,301.816 279.583,270.149 389.5,238.5C 447.168,238.667 504.834,238.5 562.5,238C 549.965,225.632 537.631,213.132 525.5,200.5C 581.229,183.898 637.229,167.898 693.5,152.5 Z"/></g>
<g><path style="opacity:0.995" fill="#f58c34" d="M 731.5,190.5 C 744.5,202.833 757.167,215.5 769.5,228.5C 579.229,282.231 389.229,336.565 199.5,391.5C 173.141,391.903 146.807,391.403 120.5,390C 108.13,387.945 97.1303,383.112 87.5,375.5C 302.25,313.816 516.916,252.149 731.5,190.5 Z"/></g>
<g><path style="opacity:0.994" fill="#f48833" d="M 769.5,228.5 C 771.804,231.141 774.138,233.808 776.5,236.5C 596.311,287.877 416.311,339.544 236.5,391.5C 224.167,391.5 211.833,391.5 199.5,391.5C 389.229,336.565 579.229,282.231 769.5,228.5 Z"/></g>
<g><path style="opacity:0.995" fill="#f28632" d="M 776.5,236.5 C 784.5,243.833 792.167,251.5 799.5,259.5C 633.442,306.63 467.442,353.964 301.5,401.5C 304.296,398.203 307.296,395.036 310.5,392C 285.836,391.5 261.169,391.333 236.5,391.5C 416.311,339.544 596.311,287.877 776.5,236.5 Z"/></g>
<g><path style="opacity:0.929" fill="#fa9d3b" d="M 175.5,237.5 C 141.771,247.769 107.771,257.435 73.5,266.5C 87.0529,249.718 104.72,240.218 126.5,238C 142.83,237.5 159.163,237.333 175.5,237.5 Z"/></g>
<g><path style="opacity:0.978" fill="#fa9b3a" d="M 175.5,237.5 C 203.833,237.5 232.167,237.5 260.5,237.5C 193.355,257.123 126.022,276.457 58.5,295.5C 61.1599,284.51 66.1599,274.844 73.5,266.5C 107.771,257.435 141.771,247.769 175.5,237.5 Z"/></g>
<g><path style="opacity:0.985" fill="#f99839" d="M 260.5,237.5 C 289.833,237.5 319.167,237.5 348.5,237.5C 251.32,265.667 153.987,293.667 56.5,321.5C 56.2549,312.751 56.9216,304.085 58.5,295.5C 126.022,276.457 193.355,257.123 260.5,237.5 Z"/></g>
<g><path style="opacity:0.992" fill="#f89638" d="M 348.5,237.5 C 362.176,237.513 375.843,237.846 389.5,238.5C 279.583,270.149 169.583,301.816 59.5,333.5C 58.1356,329.675 57.1356,325.675 56.5,321.5C 153.987,293.667 251.32,265.667 348.5,237.5 Z"/></g>
<g><path style="opacity:0.996" fill="#f18430" d="M 799.5,259.5 C 801.5,260.833 803.167,262.5 804.5,264.5C 633.891,313.37 463.224,362.036 292.5,410.5C 295.167,407.167 298.167,404.167 301.5,401.5C 467.442,353.964 633.442,306.63 799.5,259.5 Z"/></g>
<g><path style="opacity:0.996" fill="#ef7f2f" d="M 804.5,264.5 C 818.833,278.167 832.833,292.167 846.5,306.5C 636.684,367.105 426.684,427.105 216.5,486.5C 241.5,460.833 266.833,435.5 292.5,410.5C 463.224,362.036 633.891,313.37 804.5,264.5 Z"/></g>
<g><path style="opacity:0.996" fill="#ed7c2e" d="M 846.5,306.5 C 848.5,307.833 850.167,309.5 851.5,311.5C 636.734,373.612 421.734,435.278 206.5,496.5C 209.5,492.833 212.833,489.5 216.5,486.5C 426.684,427.105 636.684,367.105 846.5,306.5 Z"/></g>
<g><path style="opacity:0.989" fill="#ec792d" d="M 851.5,311.5 C 862.5,321.833 873.167,332.5 883.5,343.5C 817.897,361.595 752.564,380.261 687.5,399.5C 610.962,377.908 541.629,391.741 479.5,441C 470.302,449.032 461.635,457.532 453.5,466.5C 352.745,494.856 252.078,523.522 151.5,552.5C 169.136,533.197 187.47,514.53 206.5,496.5C 421.734,435.278 636.734,373.612 851.5,311.5 Z"/></g>
<g><path style="opacity:0.992" fill="#e9742c" d="M 883.5,343.5 C 892.576,351.24 900.576,359.906 907.5,369.5C 849.621,385.797 791.954,402.464 734.5,419.5C 719.442,411.473 703.776,404.806 687.5,399.5C 752.564,380.261 817.897,361.595 883.5,343.5 Z"/></g>
<g><path style="opacity:0.991" fill="#e6712c" d="M 907.5,369.5 C 911.18,373.183 914.514,377.183 917.5,381.5C 861.771,398.102 805.771,414.102 749.5,429.5C 744.32,426.412 739.32,423.078 734.5,419.5C 791.954,402.464 849.621,385.797 907.5,369.5 Z"/></g>
<g><path style="opacity:0.991" fill="#e36d2a" d="M 917.5,381.5 C 931.437,398.801 943.437,417.468 953.5,437.5C 902.833,452.167 852.167,466.833 801.5,481.5C 786.5,461.833 769.167,444.5 749.5,429.5C 805.771,414.102 861.771,398.102 917.5,381.5 Z"/></g>
<g><path style="opacity:0.993" fill="#e06a29" d="M 953.5,437.5 C 954.773,439.713 955.773,442.046 956.5,444.5C 906.317,459.296 855.983,473.63 805.5,487.5C 804.167,485.5 802.833,483.5 801.5,481.5C 852.167,466.833 902.833,452.167 953.5,437.5 Z"/></g>
<g><path style="opacity:0.992" fill="#dd6629" d="M 956.5,444.5 C 967.92,466.024 976.586,488.691 982.5,512.5C 934.103,527.072 885.437,541.072 836.5,554.5C 829.698,530.56 819.364,508.227 805.5,487.5C 855.983,473.63 906.317,459.296 956.5,444.5 Z"/></g>
<g><path style="opacity:0.995" fill="#e8742c" d="M 453.5,466.5 C 443.257,479.31 434.257,492.977 426.5,507.5C 319.538,537.99 212.538,568.324 105.5,598.5C 120.5,582.833 135.833,567.5 151.5,552.5C 252.078,523.522 352.745,494.856 453.5,466.5 Z"/></g>
<g><path style="opacity:0.927" fill="#2377c2" d="M 613.5,477.5 C 581.36,495.072 549.027,512.405 516.5,529.5C 540.841,497.822 573.174,480.488 613.5,477.5 Z"/></g>
<g><path style="opacity:0.986" fill="#2277c1" d="M 613.5,477.5 C 618.167,477.5 622.833,477.5 627.5,477.5C 588.316,499.261 548.649,520.261 508.5,540.5C 510.445,536.264 513.112,532.597 516.5,529.5C 549.027,512.405 581.36,495.072 613.5,477.5 Z"/></g>
<g><path style="opacity:0.99" fill="#2174bd" d="M 627.5,477.5 C 645.165,477.829 661.831,481.829 677.5,489.5C 615.009,521.912 552.676,554.578 490.5,587.5C 493.377,570.521 499.377,554.855 508.5,540.5C 548.649,520.261 588.316,499.261 627.5,477.5 Z"/></g>
<g><path style="opacity:0.994" fill="#2071ba" d="M 677.5,489.5 C 681.783,490.975 685.783,492.975 689.5,495.5C 622.693,531.405 555.693,567.072 488.5,602.5C 489.232,597.518 489.898,592.518 490.5,587.5C 552.676,554.578 615.009,521.912 677.5,489.5 Z"/></g>
<g><path style="opacity:0.993" fill="#2070b9" d="M 689.5,495.5 C 690.71,495.932 691.71,496.599 692.5,497.5C 624.5,533.5 556.5,569.5 488.5,605.5C 488.5,604.5 488.5,603.5 488.5,602.5C 555.693,567.072 622.693,531.405 689.5,495.5 Z"/></g>
<g><path style="opacity:0.994" fill="#1e6eb7" d="M 692.5,497.5 C 699.383,501.051 705.383,505.718 710.5,511.5C 636.675,550.245 563.008,589.245 489.5,628.5C 488.793,620.854 488.46,613.187 488.5,605.5C 556.5,569.5 624.5,533.5 692.5,497.5 Z"/></g>
<g><path style="opacity:0.995" fill="#e6712c" d="M 426.5,507.5 C 423.467,513.565 420.467,519.565 417.5,525.5C 306.167,557.166 194.834,588.833 83.5,620.5C 90.5,612.833 97.8333,605.5 105.5,598.5C 212.538,568.324 319.538,537.99 426.5,507.5 Z"/></g>
<g><path style="opacity:0.995" fill="#1d6bb3" d="M 710.5,511.5 C 715.479,514.479 719.479,518.479 722.5,523.5C 646.298,564.101 569.965,604.434 493.5,644.5C 491.564,639.422 490.23,634.088 489.5,628.5C 563.008,589.245 636.675,550.245 710.5,511.5 Z"/></g>
<g><path style="opacity:0.991" fill="#d96428" d="M 982.5,512.5 C 983.434,513.568 983.768,514.901 983.5,516.5C 934.759,530.303 886.092,544.303 837.5,558.5C 836.566,557.432 836.232,556.099 836.5,554.5C 885.437,541.072 934.103,527.072 982.5,512.5 Z"/></g>
<g><path style="opacity:0.993" fill="#d76028" d="M 983.5,516.5 C 988.766,535.746 992.432,555.413 994.5,575.5C 944.211,589.989 893.877,604.322 843.5,618.5C 843.601,598.278 841.601,578.278 837.5,558.5C 886.092,544.303 934.759,530.303 983.5,516.5 Z"/></g>
<g><path style="opacity:0.995" fill="#1c68b0" d="M 722.5,523.5 C 727.952,528.289 732.285,533.955 735.5,540.5C 657.36,582.405 579.027,624.072 500.5,665.5C 497.194,658.915 494.86,651.915 493.5,644.5C 569.965,604.434 646.298,564.101 722.5,523.5 Z"/></g>
<g><path style="opacity:0.996" fill="#e36d2a" d="M 417.5,525.5 C 408.472,547.969 403.139,571.303 401.5,595.5C 270.167,633.167 138.833,670.833 7.5,708.5C 10.1583,698.849 14.6583,690.183 21,682.5C 41.7014,661.632 62.5347,640.965 83.5,620.5C 194.834,588.833 306.167,557.166 417.5,525.5 Z"/></g>
<g><path style="opacity:0.995" fill="#1a65ac" d="M 735.5,540.5 C 739.868,546.57 743.202,553.236 745.5,560.5C 667.167,601.833 588.833,643.167 510.5,684.5C 506.389,678.614 503.056,672.28 500.5,665.5C 579.027,624.072 657.36,582.405 735.5,540.5 Z"/></g>
<g><path style="opacity:0.995" fill="#1962a9" d="M 745.5,560.5 C 747.072,563.215 748.072,566.215 748.5,569.5C 670.842,609.994 593.509,650.994 516.5,692.5C 514.147,690.14 512.147,687.473 510.5,684.5C 588.833,643.167 667.167,601.833 745.5,560.5 Z"/></g>
<g><path style="opacity:0.995" fill="#1961a7" d="M 748.5,569.5 C 750.277,572.505 751.277,575.838 751.5,579.5C 675.175,619.328 599.175,659.661 523.5,700.5C 520.705,698.249 518.372,695.582 516.5,692.5C 593.509,650.994 670.842,609.994 748.5,569.5 Z"/></g>
<g><path style="opacity:0.995" fill="#d35e27" d="M 994.5,575.5 C 994.5,578.167 994.5,580.833 994.5,583.5C 943.833,597.834 893.166,612.167 842.5,626.5C 843.092,623.873 843.425,621.206 843.5,618.5C 893.877,604.322 944.211,589.989 994.5,575.5 Z"/></g>
<g><path style="opacity:0.996" fill="#175ea4" d="M 751.5,579.5 C 753.246,584.572 754.246,589.905 754.5,595.5C 681.14,634.179 607.806,672.846 534.5,711.5C 530.5,708.167 526.833,704.5 523.5,700.5C 599.175,659.661 675.175,619.328 751.5,579.5 Z"/></g>
<g><path style="opacity:0.994" fill="#d15b28" d="M 994.5,583.5 C 995.497,600.659 995.83,617.992 995.5,635.5C 940.85,651.163 886.183,666.83 831.5,682.5C 837.726,664.369 841.393,645.702 842.5,626.5C 893.166,612.167 943.833,597.834 994.5,583.5 Z"/></g>
<g><path style="opacity:0.996" fill="#e06a29" d="M 401.5,595.5 C 401.806,598.385 401.473,601.052 400.5,603.5C 268.983,641.63 137.317,679.296 5.5,716.5C 5.85831,713.733 6.52498,711.067 7.5,708.5C 138.833,670.833 270.167,633.167 401.5,595.5 Z"/></g>
<g><path style="opacity:0.993" fill="#175ca3" d="M 754.5,595.5 C 754.833,596.833 755.167,598.167 755.5,599.5C 682.911,637.439 610.578,675.772 538.5,714.5C 536.596,714.262 535.262,713.262 534.5,711.5C 607.806,672.846 681.14,634.179 754.5,595.5 Z"/></g>
<g><path style="opacity:0.995" fill="#155a9f" d="M 755.5,599.5 C 755.923,610.956 755.256,622.29 753.5,633.5C 691.001,666.249 628.667,699.249 566.5,732.5C 556.111,727.982 546.777,721.982 538.5,714.5C 610.578,675.772 682.911,637.439 755.5,599.5 Z"/></g>
<g><path style="opacity:0.994" fill="#dd6729" d="M 400.5,603.5 C 400.476,628.307 403.809,652.641 410.5,676.5C 360.788,690.678 311.122,705.011 261.5,719.5C 257.096,703.314 253.262,686.981 250,670.5C 225.299,695.368 200.465,720.035 175.5,744.5C 125.983,757.895 76.6497,771.895 27.5,786.5C 8.14646,767.123 0.813125,743.79 5.5,716.5C 137.317,679.296 268.983,641.63 400.5,603.5 Z"/></g>
<g><path style="opacity:0.995" fill="#15579c" d="M 753.5,633.5 C 753.5,633.833 753.5,634.167 753.5,634.5C 691.64,667.262 629.973,700.262 568.5,733.5C 567.833,733.167 567.167,732.833 566.5,732.5C 628.667,699.249 691.001,666.249 753.5,633.5 Z"/></g>
<g><path style="opacity:0.991" fill="#135599" d="M 753.5,634.5 C 751.393,648.826 746.726,662.159 739.5,674.5C 695.702,697.232 652.036,720.232 608.5,743.5C 594.521,742.672 581.188,739.339 568.5,733.5C 629.973,700.262 691.64,667.262 753.5,634.5 Z"/></g>
<g><path style="opacity:0.992" fill="#cd5828" d="M 995.5,635.5 C 995.011,640.897 994.344,646.231 993.5,651.5C 937.395,667.192 881.395,683.192 825.5,699.5C 827.5,693.833 829.5,688.167 831.5,682.5C 886.183,666.83 940.85,651.163 995.5,635.5 Z"/></g>
<g><path style="opacity:0.992" fill="#ca5527" d="M 993.5,651.5 C 992.013,669.755 989.013,687.755 984.5,705.5C 918.167,724.167 851.833,742.833 785.5,761.5C 801.63,742.69 814.964,722.023 825.5,699.5C 881.395,683.192 937.395,667.192 993.5,651.5 Z"/></g>
<g><path style="opacity:0.985" fill="#125295" d="M 739.5,674.5 C 738.416,677.004 737.083,679.337 735.5,681.5C 695.578,702.106 655.912,723.106 616.5,744.5C 613.615,744.806 610.948,744.473 608.5,743.5C 652.036,720.232 695.702,697.232 739.5,674.5 Z"/></g>
<g><path style="opacity:0.993" fill="#d96428" d="M 410.5,676.5 C 411.404,677.209 411.737,678.209 411.5,679.5C 362.067,694.279 312.4,708.612 262.5,722.5C 262.443,721.391 262.11,720.391 261.5,719.5C 311.122,705.011 360.788,690.678 410.5,676.5 Z"/></g>
<g><path style="opacity:0.992" fill="#d76028" d="M 411.5,679.5 C 418.61,698.722 427.61,717.055 438.5,734.5C 387.5,749.167 336.5,763.833 285.5,778.5C 276.213,760.581 268.546,741.914 262.5,722.5C 312.4,708.612 362.067,694.279 411.5,679.5 Z"/></g>
<g><path style="opacity:0.99" fill="#125195" d="M 735.5,681.5 C 735.167,682.167 734.833,682.833 734.5,683.5C 696.001,703.582 657.667,723.916 619.5,744.5C 618.5,744.5 617.5,744.5 616.5,744.5C 655.912,723.106 695.578,702.106 735.5,681.5 Z"/></g>
<g><path style="opacity:0.947" fill="#115093" d="M 734.5,683.5 C 707.146,724.016 668.812,744.35 619.5,744.5C 657.667,723.916 696.001,703.582 734.5,683.5 Z"/></g>
<g><path style="opacity:0.991" fill="#c65227" d="M 984.5,705.5 C 983.143,710.927 981.476,716.26 979.5,721.5C 906.891,742.37 834.224,763.036 761.5,783.5C 769.774,776.563 777.774,769.23 785.5,761.5C 851.833,742.833 918.167,724.167 984.5,705.5 Z"/></g>
<g><path style="opacity:0.992" fill="#c34f27" d="M 979.5,721.5 C 975.19,737.108 969.523,752.108 962.5,766.5C 779.35,818.37 596.35,870.704 413.5,923.5C 399.745,915.286 387.079,905.619 375.5,894.5C 448.727,873.193 522.061,852.193 595.5,831.5C 657.431,837.514 712.764,821.514 761.5,783.5C 834.224,763.036 906.891,742.37 979.5,721.5 Z"/></g>
<g><path style="opacity:0.991" fill="#d35e27" d="M 438.5,734.5 C 440.4,736.619 442.066,738.953 443.5,741.5C 391.702,755.767 340.035,770.434 288.5,785.5C 287.227,783.287 286.227,780.954 285.5,778.5C 336.5,763.833 387.5,749.167 438.5,734.5 Z"/></g>
<g><path style="opacity:0.992" fill="#d15b28" d="M 443.5,741.5 C 454.757,756.759 467.757,770.426 482.5,782.5C 427.166,798.167 371.833,813.834 316.5,829.5C 306.016,815.659 296.683,800.992 288.5,785.5C 340.035,770.434 391.702,755.767 443.5,741.5 Z"/></g>
<g><path style="opacity:0.988" fill="#d96328" d="M 175.5,744.5 C 174.167,746.5 172.5,748.167 170.5,749.5C 123.564,762.261 76.8972,775.595 30.5,789.5C 29.1667,788.833 28.1667,787.833 27.5,786.5C 76.6497,771.895 125.983,757.895 175.5,744.5 Z"/></g>
<g><path style="opacity:0.971" fill="#d86229" d="M 170.5,749.5 C 154.606,766.895 137.606,783.062 119.5,798C 87.9618,813.735 58.2952,810.902 30.5,789.5C 76.8972,775.595 123.564,762.261 170.5,749.5 Z"/></g>
<g><path style="opacity:0.997" fill="#bf4c26" d="M 962.5,766.5 C 956.117,781.604 948.45,795.938 939.5,809.5C 778.362,855.661 617.362,901.994 456.5,948.5C 441.339,941.425 427.006,933.092 413.5,923.5C 596.35,870.704 779.35,818.37 962.5,766.5 Z"/></g>
<g><path style="opacity:0.991" fill="#cd5828" d="M 482.5,782.5 C 487.191,786.197 491.858,789.864 496.5,793.5C 439.426,809.637 382.426,825.97 325.5,842.5C 322.085,838.424 319.085,834.091 316.5,829.5C 371.833,813.834 427.166,798.167 482.5,782.5 Z"/></g>
<g><path style="opacity:0.992" fill="#ca5527" d="M 496.5,793.5 C 517.892,807.697 540.892,818.363 565.5,825.5C 497.789,844.344 430.122,863.344 362.5,882.5C 348.724,870.395 336.391,857.061 325.5,842.5C 382.426,825.97 439.426,809.637 496.5,793.5 Z"/></g>
<g><path style="opacity:0.996" fill="#bc4926" d="M 939.5,809.5 C 935.61,817.049 930.944,824.049 925.5,830.5C 776.563,872.594 627.897,915.261 479.5,958.5C 471.425,955.959 463.759,952.626 456.5,948.5C 617.362,901.994 778.362,855.661 939.5,809.5 Z"/></g>
<g><path style="opacity:0.991" fill="#c65227" d="M 565.5,825.5 C 575.62,827.516 585.62,829.516 595.5,831.5C 522.061,852.193 448.727,873.193 375.5,894.5C 370.54,891.208 366.207,887.208 362.5,882.5C 430.122,863.344 497.789,844.344 565.5,825.5 Z"/></g>
<g><path style="opacity:0.994" fill="#b84626" d="M 925.5,830.5 C 908.035,856.303 887.035,878.97 862.5,898.5C 764.211,926.656 665.877,954.656 567.5,982.5C 536.898,978.738 507.565,970.738 479.5,958.5C 627.897,915.261 776.563,872.594 925.5,830.5 Z"/></g>
<g><path style="opacity:0.99" fill="#b54425" d="M 862.5,898.5 C 860.781,901.219 858.447,903.219 855.5,904.5C 761.895,930.565 668.562,957.231 575.5,984.5C 572.72,983.922 570.053,983.255 567.5,982.5C 665.877,954.656 764.211,926.656 862.5,898.5 Z"/></g>
<g><path style="opacity:0.972" fill="#b44326" d="M 855.5,904.5 C 779.594,964.628 692.927,991.795 595.5,986C 588.836,985.389 582.17,984.889 575.5,984.5C 668.562,957.231 761.895,930.565 855.5,904.5 Z"/></g>
</svg>
