<?xml version="1.0" encoding="UTF-8"?>
<!DOCTYPE svg PUBLIC "-//W3C//DTD SVG 1.1//EN" "http://www.w3.org/Graphics/SVG/1.1/DTD/svg11.dtd">
<svg xmlns="http://www.w3.org/2000/svg" version="1.1" width="2101px" height="2048px" style="shape-rendering:geometricPrecision; text-rendering:geometricPrecision; image-rendering:optimizeQuality; fill-rule:evenodd; clip-rule:evenodd" xmlns:xlink="http://www.w3.org/1999/xlink">
<g><path style="opacity:1" fill="#001e36" d="M 344.5,-0.5 C 814.833,-0.5 1285.17,-0.5 1755.5,-0.5C 1879.3,11.7903 1975.47,69.4569 2044,172.5C 2076.36,225.067 2095.19,282.067 2100.5,343.5C 2100.5,796.5 2100.5,1249.5 2100.5,1702.5C 2088.21,1826.3 2030.54,1922.47 1927.5,1991C 1874.64,2023.56 1817.31,2042.4 1755.5,2047.5C 1285.17,2047.5 814.833,2047.5 344.5,2047.5C 220.688,2035.21 124.521,1977.54 56,1874.5C 23.6443,1821.93 4.81092,1764.93 -0.5,1703.5C -0.5,1250.17 -0.5,796.833 -0.5,343.5C 11.2537,225.784 64.9204,132.617 160.5,64C 216.152,26.5037 277.486,5.00371 344.5,-0.5 Z"/></g>
<g><path style="opacity:1" fill="#30a7fe" d="M 693.5,1154.5 C 683.013,1153.51 672.346,1153.17 661.5,1153.5C 661.5,1248.83 661.5,1344.17 661.5,1439.5C 660.314,1443.52 657.648,1446.02 653.5,1447C 595.5,1447.67 537.5,1447.67 479.5,1447C 475.973,1446.14 473.807,1443.97 473,1440.5C 472.333,1136.83 472.333,833.167 473,529.5C 474.167,528.333 475.333,527.167 476.5,526C 539.171,524.492 601.838,522.825 664.5,521C 712.181,520.09 759.847,520.423 807.5,522C 868.338,525.625 926.004,540.959 980.5,568C 1071.55,619.492 1122.38,697.659 1133,802.5C 1137.19,857.402 1130.19,910.735 1112,962.5C 1078.28,1041.55 1021.11,1096.05 940.5,1126C 874.533,1148.22 806.7,1158.05 737,1155.5C 722.48,1155.46 707.98,1155.12 693.5,1154.5 Z"/></g>
<g><path style="opacity:1" fill="#001e36" d="M 702.5,692.5 C 728.502,692.333 754.502,692.5 780.5,693C 817.875,694.337 852.875,704.003 885.5,722C 917.267,743.831 936.1,773.998 942,812.5C 952.21,902.601 913.376,958.434 825.5,980C 790.648,988.273 755.315,991.773 719.5,990.5C 700.788,990.688 682.121,990.021 663.5,988.5C 663.5,890.5 663.5,792.5 663.5,694.5C 676.649,693.909 689.649,693.242 702.5,692.5 Z"/></g>
<g><path style="opacity:1" fill="#30a7fe" d="M 1478.5,737.5 C 1536.42,735.683 1593.75,740.516 1650.5,752C 1665.11,756.204 1679.45,761.204 1693.5,767C 1695.71,768.873 1697.54,771.04 1699,773.5C 1700.65,825.455 1700.98,877.455 1700,929.5C 1699.21,931.587 1698.04,933.421 1696.5,935C 1691.56,936.328 1686.56,936.661 1681.5,936C 1655.64,922.071 1628.3,912.071 1599.5,906C 1554.69,895.63 1509.36,892.297 1463.5,896C 1450.07,897.435 1437.73,901.768 1426.5,909C 1406.19,930.292 1406.52,951.292 1427.5,972C 1432.83,976 1438.17,980 1443.5,984C 1460.77,993.467 1478.43,1002.13 1496.5,1010C 1535.65,1023.57 1573.65,1039.91 1610.5,1059C 1641.64,1074.16 1669.14,1094.33 1693,1119.5C 1719.87,1150.74 1734.2,1187.08 1736,1228.5C 1738.74,1323.68 1697.58,1392.18 1612.5,1434C 1571.73,1451.8 1529.07,1461.8 1484.5,1464C 1419.89,1468.75 1356.22,1463.09 1293.5,1447C 1273.52,1441.34 1254.18,1434.01 1235.5,1425C 1231.81,1422.31 1229.31,1418.81 1228,1414.5C 1227.33,1360.83 1227.33,1307.17 1228,1253.5C 1229.48,1249.33 1232.32,1247.83 1236.5,1249C 1313.49,1292.58 1396.16,1310.91 1484.5,1304C 1502.82,1302.89 1519.49,1297.23 1534.5,1287C 1549.01,1272.04 1551.17,1255.54 1541,1237.5C 1533.7,1227.87 1524.87,1220.03 1514.5,1214C 1479.46,1196.48 1443.46,1181.15 1406.5,1168C 1365.41,1150.64 1327.75,1127.97 1293.5,1100C 1238.95,1048.01 1219.12,984.841 1234,910.5C 1248.38,852.883 1280.88,808.717 1331.5,778C 1361.65,760.393 1393.99,748.726 1428.5,743C 1445.21,740.236 1461.88,738.403 1478.5,737.5 Z"/></g>
<g><path style="opacity:1" fill="#217abd" d="M 693.5,1154.5 C 683.167,1154.5 672.833,1154.5 662.5,1154.5C 662.833,1249.67 662.499,1344.67 661.5,1439.5C 661.5,1344.17 661.5,1248.83 661.5,1153.5C 672.346,1153.17 683.013,1153.51 693.5,1154.5 Z"/></g>
</svg>
