<?xml version="1.0" encoding="UTF-8"?>
<svg version="1.1" xmlns="http://www.w3.org/2000/svg" width="512" height="512">
<path d="M0 0 C168.96 0 337.92 0 512 0 C512 168.96 512 337.92 512 512 C343.04 512 174.08 512 0 512 C0 343.04 0 174.08 0 0 Z " fill="#1A1A1A" transform="translate(0,0)"/>
<path d="M0 0 C2.20725346 -0.00570989 4.41450397 -0.01267653 6.62174988 -0.02079773 C12.58870691 -0.038675 18.55551645 -0.03757105 24.52249217 -0.03185534 C29.51490406 -0.02875587 34.50728794 -0.03486433 39.49969584 -0.04089409 C51.95445357 -0.05572009 64.40914601 -0.05214091 76.86390055 -0.04003078 C87.65352047 -0.03009964 98.44296888 -0.04304255 109.23256236 -0.06696498 C120.34217067 -0.09140923 131.45171 -0.10055211 142.56134611 -0.09431225 C148.78625604 -0.09094962 155.01102427 -0.09331181 161.23591423 -0.11056328 C167.0908208 -0.12608273 172.94540096 -0.12202125 178.80029488 -0.10325813 C180.94115768 -0.09958622 183.08204495 -0.10263961 185.22288513 -0.11314392 C204.8573717 -0.20208202 220.97121868 2.90246446 235.80883789 16.91577148 C249.2094254 31.48262173 251.40216718 47.61412363 251.37255859 66.54077148 C251.37691055 68.37969163 251.38209531 70.21860997 251.38804626 72.05752563 C251.40139358 77.03266549 251.40201983 82.00772919 251.39948297 86.98288345 C251.39841063 91.14293239 251.4033032 95.30296608 251.40808839 99.46301174 C251.41916823 109.2789824 251.41962917 119.09491479 251.41357422 128.91088867 C251.40753129 139.02485454 251.41985708 149.1386814 251.44114429 159.25262356 C251.45877462 167.95012261 251.46475949 176.64757747 251.46150655 185.34509373 C251.45969627 190.53367967 251.46230467 195.72216638 251.47622108 200.91073608 C251.48881855 205.78964819 251.48683715 210.66834378 251.4738102 215.54725266 C251.47144927 217.33341928 251.47416168 219.11960124 251.48243332 220.90575027 C251.5404169 234.40391953 250.52071668 244.54464058 240.97290039 254.96655273 C235.61269895 260.16537176 228.62307713 263.9237223 221.09790039 264.40405273 C220.11950195 264.49686523 220.11950195 264.49686523 219.12133789 264.59155273 C208.98575507 265.16458922 200.60051986 260.90306668 193.09790039 254.40405273 C190.80622738 252.00454017 188.75647404 249.4612441 186.72290039 246.84155273 C186.16473633 246.13901367 185.60657227 245.43647461 185.03149414 244.71264648 C180.8565133 239.43898647 176.76952646 234.09670511 172.69165039 228.74780273 C169.73578699 224.90518032 166.66672717 221.1566216 163.59790039 217.40405273 C158.82085824 211.56019803 154.16093332 205.64637694 149.58227539 199.64624023 C146.8281525 196.04007448 144.02822334 192.47045896 141.22290039 188.90405273 C140.77027832 188.3283252 140.31765625 187.75259766 139.85131836 187.15942383 C137.28181617 183.89551343 134.69444018 180.64646721 132.09790039 177.40405273 C132.09203415 178.56757263 132.08616791 179.73109253 132.0801239 180.92987061 C132.02273021 191.93394221 131.94988238 202.93781935 131.86218548 213.94169235 C131.81759649 219.59791367 131.77831535 225.25406485 131.75146484 230.91040039 C131.72531713 236.3764922 131.68483444 241.84231247 131.63471413 247.30823517 C131.61812266 249.38601536 131.6065606 251.46384243 131.60028648 253.54167938 C131.53959455 271.80576274 130.06112036 288.22138656 116.91040039 302.27905273 C105.75450174 312.60015625 93.46371822 316.8734922 78.50463867 316.80810547 C76.83424026 316.81840034 76.83424026 316.81840034 75.13009644 316.8289032 C71.47600281 316.84709342 67.82234176 316.84334441 64.16821289 316.83764648 C61.61050274 316.84221217 59.05279382 316.84751889 56.49508667 316.85353088 C51.14404733 316.86244691 45.79316332 316.86029259 40.44213867 316.85009766 C34.28561674 316.83862614 28.12953094 316.85268684 21.97306645 316.87949413 C16.01540275 316.90444969 10.0578728 316.90680739 4.10015488 316.90037727 C1.58134104 316.90022457 -0.93748139 316.90622606 -3.4562645 316.91866875 C-6.98784949 316.93365765 -10.51849197 316.92284245 -14.05004883 316.90576172 C-15.07588074 316.91542969 -16.10171265 316.92509766 -17.15863037 316.93505859 C-33.11798955 316.77459573 -45.91013166 309.52362231 -56.90209961 298.40405273 C-67.29258216 287.06531255 -71.22662207 274.05075602 -71.16952515 258.89897156 C-71.17405626 257.99713459 -71.17858737 257.09529763 -71.18325579 256.16613227 C-71.19581826 253.17336407 -71.19428473 250.18077976 -71.19262695 247.18798828 C-71.19861725 245.03029143 -71.20542394 242.87259671 -71.21298218 240.71490479 C-71.23059705 234.87388973 -71.23533562 229.03293334 -71.23661375 223.19189429 C-71.23803832 219.53767591 -71.24231368 215.88347229 -71.24760818 212.22925758 C-71.26609262 199.46695641 -71.27428067 186.70469693 -71.27270508 173.94238281 C-71.2715037 162.06810661 -71.29260955 150.19401218 -71.3241924 138.31978196 C-71.35038695 128.10544029 -71.36107106 117.89115789 -71.35979426 107.67678291 C-71.35928562 101.58485343 -71.36491481 95.49308565 -71.38615036 89.4011898 C-71.40558655 83.66943792 -71.4056203 77.93800112 -71.3911171 72.20623779 C-71.38903468 70.11052296 -71.39369579 68.01478813 -71.40583801 65.91910744 C-71.50484264 47.63815779 -68.96717907 31.31369666 -55.94506836 17.31420898 C-39.40165081 1.84627174 -21.67129043 -0.05073062 0 0 Z " fill="#43F9DD" transform="translate(165.902099609375,94.595947265625)"/>
<path d="M0 0 C0.91092989 -0.00226556 1.82185979 -0.00453111 2.76039362 -0.00686532 C5.83128257 -0.01322616 8.90212763 -0.01237463 11.97302246 -0.0115509 C14.16708941 -0.01454106 16.36115583 -0.01794325 18.55522156 -0.02172852 C24.52819023 -0.03058644 30.50114458 -0.03290736 36.47411919 -0.0335443 C41.45214506 -0.03449178 46.43016757 -0.03816814 51.40819216 -0.0417164 C62.47560769 -0.04940142 73.54301756 -0.0523844 84.61043543 -0.05171105 C85.27487919 -0.05167109 85.93932295 -0.05163113 86.62390137 -0.05158997 C87.62177857 -0.05152864 87.62177857 -0.05152864 88.63981491 -0.05146609 C99.42775101 -0.0510594 110.21565224 -0.06063412 121.00357825 -0.07472833 C132.07099419 -0.08907406 143.13839572 -0.09581616 154.20582151 -0.09513456 C160.42322568 -0.09487889 166.6405904 -0.09776782 172.85798645 -0.10831261 C178.70196804 -0.11795306 184.54587211 -0.1181008 190.38985634 -0.11079597 C192.54017054 -0.10974512 194.69048947 -0.11214241 196.84079552 -0.11815643 C199.76529444 -0.12580887 202.68952113 -0.12127674 205.61401367 -0.11352539 C206.47450522 -0.11866895 207.33499677 -0.12381252 208.22156382 -0.12911195 C214.07873549 -0.09455858 214.07873549 -0.09455858 216.30700684 2.13371277 C216.55310249 4.75364876 216.55310249 4.75364876 216.54751587 8.14472961 C216.55163986 10.06728073 216.55163986 10.06728073 216.55584717 12.02867126 C216.54876839 13.45707795 216.54149876 14.8854837 216.53405762 16.31388855 C216.53349373 17.81170138 216.53380962 19.30951476 216.53494263 20.80732727 C216.53551802 24.88150718 216.52373366 28.95557006 216.50979471 33.02972269 C216.49731832 37.28450336 216.4961193 41.53928651 216.4937439 45.79408264 C216.48752001 53.85471616 216.47109695 61.91529562 216.45104492 69.9759053 C216.42871413 79.15110205 216.4176996 88.32630134 216.40765405 97.50151849 C216.38673148 116.37894726 216.3515379 135.25632567 216.30700684 154.13371277 C213.50257363 151.35259166 210.79493839 148.65737987 208.43200684 145.48918152 C207.9284668 144.82056091 207.42492676 144.15194031 206.90612793 143.46305847 C206.37841797 142.75624939 205.85070801 142.04944031 205.30700684 141.32121277 C200.86706067 135.44219496 196.34973778 129.64616989 191.68200684 123.94621277 C187.6533986 119.02509622 183.66192833 114.0814073 179.74450684 109.07121277 C175.89810634 104.15211654 172.02289597 99.25773731 168.11950684 94.38371277 C167.61822266 93.75682556 167.11693848 93.12993835 166.60046387 92.48405457 C164.34790324 89.66965348 162.08666189 86.86379021 159.80700684 84.07121277 C159.08513184 83.18433777 158.36325684 82.29746277 157.61950684 81.38371277 C156.68558105 80.24675964 156.68558105 80.24675964 155.73278809 79.08683777 C154.30700684 77.13371277 154.30700684 77.13371277 153.30700684 74.13371277 C151.46471181 73.01171064 151.46471181 73.01171064 149.30700684 72.13371277 C148.68181152 71.80371277 148.05661621 71.47371277 147.41247559 71.13371277 C138.99898864 66.74704748 130.90791112 64.51566381 121.50231934 66.82121277 C111.30352281 70.21139444 104.32942596 75.53673354 99.30700684 85.13371277 C97.75297917 89.21341668 97.05394288 92.60847644 97.03526306 96.96690369 C97.02554474 98.10817215 97.01582642 99.24944061 97.0058136 100.42529297 C97.00522446 101.66292892 97.00463531 102.90056488 97.00402832 104.17570496 C96.99136932 106.14729836 96.99136932 106.14729836 96.97845459 108.15872192 C96.96022925 111.00862401 96.94815701 113.85846119 96.94091606 116.70841217 C96.92940488 121.21257613 96.9039403 125.71659613 96.87660217 130.22068787 C96.83501504 137.34023294 96.80256745 144.45978496 96.77412802 151.57939363 C96.72306659 164.34301947 96.66105404 177.10658563 96.58878762 189.87010884 C96.56384403 194.35038412 96.54442298 198.83064018 96.52940547 203.31095934 C96.52167044 205.42315954 96.51174452 207.53533587 96.50085449 209.64752197 C96.48766399 212.22641363 96.47808172 214.80532711 96.47267151 217.38424683 C96.46577301 218.51423599 96.45887451 219.64422516 96.45176697 220.80845642 C96.4459846 222.28730631 96.4459846 222.28730631 96.44008541 223.79603195 C96.30700684 226.13371277 96.30700684 226.13371277 95.30700684 228.13371277 C81.70315222 228.24951372 68.09941467 228.33838146 54.49516773 228.39277363 C48.17828283 228.41887794 41.8617349 228.45429241 35.54504395 228.51091003 C29.45016349 228.56519826 23.35560733 228.59512701 17.26050377 228.60809898 C14.93402691 228.61734446 12.60756799 228.6353986 10.28122902 228.66236305 C7.02486303 228.69860957 3.76984061 228.70365976 0.51330566 228.70133972 C-0.4505455 228.7193161 -1.41439667 228.73729248 -2.40745544 228.7558136 C-7.03479061 228.72009189 -9.02291482 228.6589165 -12.76838684 225.72323608 C-16.00037316 221.37465642 -15.84370868 218.07319662 -15.84689331 212.80931091 C-15.85127556 211.93795525 -15.85565782 211.06659959 -15.86017287 210.16883922 C-15.87359093 207.23167255 -15.87974646 204.2945359 -15.88586426 201.35734558 C-15.89376284 199.25843672 -15.90203163 197.15952922 -15.91064453 195.06062317 C-15.93689224 188.15270795 -15.95217462 181.24478658 -15.96643066 174.33683777 C-15.97178916 171.96143845 -15.97716666 169.58603918 -15.98256302 167.21063995 C-16.00419551 157.33173778 -16.02293331 147.45283726 -16.03418541 137.57391739 C-16.05043116 123.40254394 -16.08362017 109.2314444 -16.14058626 95.06017423 C-16.17924998 85.10343456 -16.19881387 75.14676826 -16.20410597 65.18995547 C-16.20776422 59.23947599 -16.21983606 53.28928848 -16.25220871 47.33889008 C-16.2822264 41.74101827 -16.28862349 36.14361606 -16.27682495 30.545681 C-16.27660369 28.49055865 -16.28495184 26.4354149 -16.30247879 24.38036728 C-16.32510324 21.57502641 -16.31690671 18.77139798 -16.30099487 15.96604919 C-16.31487696 15.15222755 -16.32875905 14.3384059 -16.3430618 13.49992299 C-16.28578874 9.4034592 -15.89571283 6.88440724 -13.27999306 3.64419174 C-9.03184974 -0.47829566 -5.65768222 -0.01018197 0 0 Z " fill="#1A1A1A" transform="translate(155.6929931640625,138.8662872314453)"/>
<path d="M0 0 C11.12535667 -1.09072124 21.3835661 4.3530367 30 11 C30.68707031 11.51175781 31.37414062 12.02351563 32.08203125 12.55078125 C42.38485167 20.80485726 49.13762251 34.01276449 51 47 C51.30213053 53.04541571 51.28412546 59.08498323 51.2746582 65.13671875 C51.27901016 66.9756389 51.28419492 68.81455723 51.29014587 70.6534729 C51.30349319 75.62861276 51.30411944 80.60367645 51.30158257 85.57883072 C51.30051023 89.73887966 51.30540281 93.89891335 51.310188 98.05895901 C51.32126784 107.87492967 51.32172878 117.69086205 51.31567383 127.50683594 C51.3096309 137.6208018 51.32195669 147.73462867 51.3432439 157.84857082 C51.36087423 166.54606988 51.3668591 175.24352473 51.36360615 183.94104099 C51.36179588 189.12962694 51.36440428 194.31811365 51.37832069 199.50668335 C51.39091815 204.38559545 51.38893676 209.26429105 51.37590981 214.14319992 C51.37354888 215.92936655 51.37626129 217.71554851 51.38453293 219.50169754 C51.44251651 232.9998668 50.42281629 243.14058785 40.875 253.5625 C35.51479856 258.76131903 28.52517674 262.51966957 21 263 C20.34773437 263.061875 19.69546875 263.12375 19.0234375 263.1875 C8.88785468 263.76053648 0.50261947 259.49901394 -7 253 C-9.29167301 250.60048743 -11.34142635 248.05719136 -13.375 245.4375 C-13.93316406 244.73496094 -14.49132812 244.03242188 -15.06640625 243.30859375 C-19.24138709 238.03493374 -23.32837393 232.69265238 -27.40625 227.34375 C-30.3621134 223.50112759 -33.43117322 219.75256886 -36.5 216 C-41.27704215 210.1561453 -45.93696707 204.2423242 -50.515625 198.2421875 C-53.26974789 194.63602174 -56.06967705 191.06640622 -58.875 187.5 C-59.32762207 186.92427246 -59.78024414 186.34854492 -60.24658203 185.75537109 C-62.81608422 182.4914607 -65.40346021 179.24241448 -68 176 C-68.00586624 177.1635199 -68.01173248 178.32703979 -68.01777649 179.52581787 C-68.07517018 190.52988947 -68.14801801 201.53376661 -68.23571491 212.53763962 C-68.2803039 218.19386093 -68.31958504 223.85001212 -68.34643555 229.50634766 C-68.37258326 234.97243947 -68.41306595 240.43825974 -68.46318626 245.90418243 C-68.47977773 247.98196262 -68.49133979 250.05978969 -68.49761391 252.13762665 C-68.55830584 270.40171001 -70.03678003 286.81733382 -83.1875 300.875 C-91.51230106 308.57685676 -102.49633442 315.09428424 -114.125 315.1875 C-115.07375 315.125625 -116.0225 315.06375 -117 315 C-116.67518835 314.48712496 -116.3503767 313.97424992 -116.01572227 313.44583321 C-114.64953582 310.15609123 -114.74937103 307.42890504 -114.7484436 303.8666687 C-114.74547346 303.14751789 -114.74250333 302.42836708 -114.73944318 301.68742383 C-114.73180326 299.27704923 -114.73829723 296.86691831 -114.74462891 294.45654297 C-114.74187891 292.72835627 -114.73819896 291.00017084 -114.73365784 289.27198792 C-114.7255431 285.5489926 -114.72337812 281.82605735 -114.72560501 278.10305405 C-114.72843803 272.21067145 -114.71408522 266.31840877 -114.69662476 260.42605591 C-114.64960083 243.66979788 -114.62566661 226.91354762 -114.61914062 210.15722656 C-114.61538459 200.90376547 -114.59730927 191.65043975 -114.56404626 182.39703667 C-114.54387209 176.54568271 -114.54144291 170.69467885 -114.55232644 164.8433044 C-114.55494253 161.1924378 -114.54088527 157.5417729 -114.52224541 153.89095879 C-114.51694434 152.20520324 -114.51838433 150.51941006 -114.52728081 148.83366966 C-114.5878865 136.33582271 -113.32431586 126.48480102 -104.421875 117.046875 C-97.04421869 110.81156547 -88.42226 107.60570077 -78.85546875 107.71875 C-69.14001983 108.6756752 -60.78991751 112.69838739 -54.3671875 119.98828125 C-53.52708843 121.08926721 -52.69671436 122.19772556 -51.875 123.3125 C-50.92337824 124.56364479 -49.97018913 125.81359865 -49.015625 127.0625 C-48.52384766 127.70960938 -48.03207031 128.35671875 -47.52539062 129.0234375 C-44.96266513 132.34415223 -42.28845521 135.57248226 -39.625 138.8125 C-34.57278348 144.98734809 -29.69923493 151.27967109 -24.87988281 157.63720703 C-20.61885448 163.23862507 -16.2198773 168.71401325 -11.76074219 174.15844727 C-7.5508261 179.30239826 -3.42514943 184.50733518 0.66259766 189.7487793 C2.72552768 192.46563567 2.72552768 192.46563567 5 195 C5.11677423 170.46114444 5.20495933 145.92233049 5.25906086 121.3832531 C5.28484825 109.98945709 5.32000921 98.59583367 5.37719727 87.20214844 C5.4270156 77.27201763 5.45928712 67.3420118 5.47044247 57.4117595 C5.47696384 52.15315221 5.49230234 46.8949025 5.52865028 41.63640976 C5.56258478 36.6869796 5.57305803 31.73805435 5.56553841 26.78851891 C5.56691408 24.9720466 5.57686175 23.15555743 5.59602737 21.33918571 C5.62092654 18.85773693 5.61491784 16.37819132 5.60127258 13.896698 C5.61583679 13.17878582 5.630401 12.46087364 5.64540654 11.72120655 C5.56218118 6.1174622 3.76789157 3.83527345 0 0 Z " fill="#B7FDB2" transform="translate(366,96)"/>
<path d="M0 0 C0.33 0 0.66 0 1 0 C1 11.55 1 23.1 1 35 C-10.88 35 -22.76 35 -35 35 C-35 34.67 -35 34.34 -35 34 C-34.10861328 33.79697266 -34.10861328 33.79697266 -33.19921875 33.58984375 C-22.55494536 30.8253124 -13.22797484 25.20994783 -7 16 C-2.64761268 8.3450781 -2.64761268 8.3450781 0 0 Z " fill="#000000" transform="translate(511,477)"/>
<path d="M0 0 C1.10845475 2.21690951 2.20116477 4.44269062 3.2265625 6.69921875 C8.40828055 17.77188441 14.76449392 25.7522786 26 31 C29.29544686 32.18852182 32.59626595 33.17441344 36 34 C36 34.33 36 34.66 36 35 C24.12 35 12.24 35 0 35 C0 23.45 0 11.9 0 0 Z " fill="#000000" transform="translate(0,477)"/>
<path d="M0 0 C11.88 0 23.76 0 36 0 C36 11.55 36 23.1 36 35 C34.89154525 32.78309049 33.79883523 30.55730938 32.7734375 28.30078125 C27.59171945 17.22811559 21.23550608 9.2477214 10 4 C6.70455314 2.81147818 3.40373405 1.82558656 0 1 C0 0.67 0 0.34 0 0 Z " fill="#000000" transform="translate(476,0)"/>
<path d="M0 0 C11.88 0 23.76 0 36 0 C36 0.33 36 0.66 36 1 C35.40574219 1.13535156 34.81148437 1.27070313 34.19921875 1.41015625 C23.56347652 4.17247188 14.21464353 9.78679097 8 19 C5.81892665 22.92290276 3.87989787 26.92591793 2 31 C1.34 32.32 0.68 33.64 0 35 C0 23.45 0 11.9 0 0 Z " fill="#000000" transform="translate(0,0)"/>
</svg>
