<svg xmlns="http://www.w3.org/2000/svg" width="311" height="309" fill="none"><mask id="a" width="311" height="309" x="0" y="0" maskUnits="userSpaceOnUse" style="mask-type:alpha"><path fill="#DDF7F9" d="M76.565 308.433a2.615 2.615 0 0 1-1.457-.423c-5.932-3.897-11.808-7.88-17.815-11.645-1.227-.753-3.077-1.129-4.477-.851-22.191 4.409-45-19.084-40.246-41.479.272-1.301-.518-3.077-1.3-4.347-3.213-5.266-6.5-10.458-9.953-15.557-1.677-2.498-1.572-4.613.309-6.869 4.1-4.927 8.139-9.922 12.24-14.879.936-1.129 2.854-.569 3.72.615 18.19 24.904 38.484 47.629 62.656 66.814 8.384 6.654 10.078 18.545 1.61 25.091-1.3 1.004-2.603 2.001-3.895 3.009-.408.318-.875.512-1.392.521Z"/><path fill="#DDF7F9" d="M76.565 308.433a2.615 2.615 0 0 1-1.457-.423c-5.932-3.897-11.808-7.88-17.815-11.645-1.227-.753-3.077-1.129-4.477-.851-22.191 4.409-45-19.084-40.246-41.479.272-1.301-.518-3.077-1.3-4.347-3.213-5.266-6.5-10.458-9.953-15.557-1.677-2.498-1.572-4.613.309-6.869 4.1-4.927 8.139-9.922 12.24-14.879.936-1.129 2.854-.569 3.72.615 18.19 24.904 38.484 47.629 62.656 66.814 8.384 6.654 10.078 18.545 1.61 25.091-1.3 1.004-2.603 2.001-3.895 3.009-.408.318-.875.512-1.392.521Zm94.646-262.246c47.189.037 87.466 34.912 94.514 81.417 3.589 23.629-.857 45.518-12.585 66.138-4.378 7.726-11.111 11.555-19.904 11.111-9.126-.444-16.137-5.025-18.973-13.713-6.086-18.634-30.097-31.595-52.56-18.462-21.612 12.616-46.024 9.946-64.047-6.295-17.03-15.385-22.395-41.307-13.06-63.123 14.632-34.197 49.372-57.073 86.615-57.073Z"/><path fill="#DDF7F9" d="M173.975 280.241a24.906 24.906 0 0 1-6.647-.053c-8.679-1.257-17.378-2.459-26.018-3.826-2.565-.407-4.415-.271-6.499 1.677-3.49 3.281-7.56 5.981-11.216 9.095-2.461 2.084-4.582 1.776-7.184.173-31.25-18.979-57.345-43.428-78.235-73.451-3.83-5.475-7.147-11.321-10.877-16.858-1.536-2.257-1.468-4.07.172-6.16 3.385-4.341 6.77-8.651 9.848-13.165.962-1.436 1.609-3.693 1.3-5.333-8.687-42.503-1.06-81.658 25.238-116.3C89.397 22.393 123.354 2.87 165.925.374c74.036-4.31 127.891 49.86 140.476 105.422 19.799 87.337-40.931 157.538-105.73 170.77-8.767 1.768-17.701 2.558-26.696 3.676Zm113.07-145.41c-.82-29.375-13.608-59.33-40.351-83.026-42.607-37.755-108.295-38.064-150.15.474-31.595 29.067-43.391 65.626-36.214 108.16 11.802 69.689 83.237 112.47 150.151 89.834 45.993-15.594 76.497-59.194 76.564-115.442Z"/><path fill="#DDF7F9" d="M171.207 46.188c47.189.037 87.466 34.912 94.513 81.417 3.589 23.629-.857 45.518-12.584 66.138-4.378 7.726-11.112 11.555-19.905 11.111-9.125-.444-16.136-5.025-18.973-13.713-6.086-18.634-30.096-31.595-52.56-18.462-21.612 12.616-46.023 9.946-64.047-6.295-17.03-15.385-22.395-41.307-13.06-63.123 14.633-34.197 49.372-57.073 86.616-57.073Z"/><path fill="#DDF7F9" d="M206.882 229.264c-2.474.602-5.033.905-7.564.628-13.856-1.519-23.119-7.556-28.58-19.326-4.582-9.878-.753-20.755 8.447-24.893 9.403-4.242 19.386.068 23.832 10.427 2.294 5.334 5.747 9.169 11.487 10.877 4.551 1.332 6.499 5.093 6.74 9.539.271 4.717-1.949 8.583-6.259 10.328-2.754 1.074-5.656 1.824-8.103 2.42Z"/></mask><g mask="url(#a)"><g filter="url(#b)"><circle cx="180.741" cy="233.587" r="143.96" fill="#FF58E8"/></g><g filter="url(#c)"><circle cx="81.427" cy="94.183" r="146.693" fill="#00CEF5"/></g></g><defs><filter id="b" width="522.033" height="522.033" x="-80.275" y="-27.429" color-interpolation-filters="sRGB" filterUnits="userSpaceOnUse"><feFlood flood-opacity="0" result="BackgroundImageFix"/><feBlend in="SourceGraphic" in2="BackgroundImageFix" result="shape"/><feGaussianBlur result="effect1_foregroundBlur_3745_891" stdDeviation="58.529"/></filter><filter id="c" width="527.5" height="527.5" x="-182.323" y="-169.566" color-interpolation-filters="sRGB" filterUnits="userSpaceOnUse"><feFlood flood-opacity="0" result="BackgroundImageFix"/><feBlend in="SourceGraphic" in2="BackgroundImageFix" result="shape"/><feGaussianBlur result="effect1_foregroundBlur_3745_891" stdDeviation="58.529"/></filter></defs></svg>